<?xml version="1.0" encoding="UTF-8"?>
<svg version="1.1" xmlns="http://www.w3.org/2000/svg" width="70" height="75">
<path d="M0 0 C0.66 0 1.32 0 2 0 C7.70612245 18.5877551 7.70612245 18.5877551 4 26 C3.84995027 27.3734635 3.75161994 28.7528526 3.68359375 30.1328125 C3.64169922 30.93847656 3.59980469 31.74414062 3.55664062 32.57421875 C3.51732422 33.41597656 3.47800781 34.25773437 3.4375 35.125 C3.39431641 35.97449219 3.35113281 36.82398438 3.30664062 37.69921875 C3.20045764 39.79928223 3.09971503 41.89961948 3 44 C4.28003906 44.02320313 5.56007813 44.04640625 6.87890625 44.0703125 C7.59892822 44.08336426 8.3189502 44.09641602 9.06079102 44.10986328 C11.09285809 44.14143029 11.09285809 44.14143029 12.9375 42.875 C15.02029571 39.19947815 15.20705432 35.88815407 14.2578125 31.81640625 C13.88398437 30.74261719 13.51015625 29.66882813 13.125 28.5625 C10.66415831 21.03471692 9.0884371 15.66200762 12 8 C12.66 7.67 13.32 7.34 14 7 C14.21914063 7.75023437 14.43828125 8.50046875 14.6640625 9.2734375 C16.92103865 16.55814914 19.86611789 22.6147421 24 29 C26.00169683 33.00339366 25.62879077 37.65834944 25 42 C22.43872166 46.93644304 18.26609103 50.31087646 13 52 C9.3178273 52.22408796 5.68323332 52.17695249 2 52 C2.01160156 53.21558594 2.02320312 54.43117187 2.03515625 55.68359375 C2.04453278 57.26822764 2.05363313 58.85286318 2.0625 60.4375 C2.07087891 61.23994141 2.07925781 62.04238281 2.08789062 62.86914062 C2.0965143 64.91295221 2.0522815 66.95683902 2 69 C1.67 69.33 1.34 69.66 1 70 C-0.65 70 -2.3 70 -4 70 C-4 64.06 -4 58.12 -4 52 C-6.784375 52.12375 -6.784375 52.12375 -9.625 52.25 C-14.95693487 52.25 -17.95765593 51.73139453 -22 48 C-25.55611001 44.03356961 -25.50495346 40.96423325 -25.34765625 35.80078125 C-24.82135124 31.56077348 -23.25011869 28.57817039 -21 25 C-19.97784031 23.31330307 -18.95706914 21.62576411 -17.9375 19.9375 C-17.42832031 19.10347656 -16.91914063 18.26945312 -16.39453125 17.41015625 C-14.62769658 14.35655124 -13.28430486 11.28211243 -12 8 C-9.75225452 10.24774548 -9.33401301 11.76363579 -8.96484375 14.87890625 C-9.05890944 20.55420298 -11.56335453 25.97221044 -13.75 31.125 C-15.41619048 35.38593504 -14.93402741 38.56336982 -14 43 C-13.02089415 44.19695276 -13.02089415 44.19695276 -11.1875 44.1328125 C-10.465625 44.13023438 -9.74375 44.12765625 -9 44.125 C-8.278125 44.12757812 -7.55625 44.13015625 -6.8125 44.1328125 C-4.97910585 44.19695276 -4.97910585 44.19695276 -4 43 C-3.89969405 40.03212407 -3.86128215 37.09262828 -3.875 34.125 C-3.87113281 33.29613281 -3.86726563 32.46726563 -3.86328125 31.61328125 C-3.86457031 30.81535156 -3.86585937 30.01742188 -3.8671875 29.1953125 C-3.86831543 28.46328613 -3.86944336 27.73125977 -3.87060547 26.97705078 C-3.92999796 24.78734687 -3.92999796 24.78734687 -5 22 C-5.38196067 16.42746672 -4.36896248 12.2097237 -2.5 7.0625 C-2.14228516 6.03672852 -2.14228516 6.03672852 -1.77734375 4.99023438 C-1.19454118 3.32341903 -0.59862949 1.66119684 0 0 Z " fill="#EF0C11" transform="translate(35,1)"/>
<path d="M0 0 C2.24774548 2.24774548 2.66598699 3.76363579 3.03515625 6.87890625 C2.94109056 12.55420298 0.43664547 17.97221044 -1.75 23.125 C-3.4168442 27.39628826 -2.92100447 30.54847838 -2 35 C-1.67 35.66 -1.34 36.32 -1 37 C-1.99 37 -2.98 37 -4 37 C-5.85776765 33.86501708 -6.20140476 31.62528568 -6 28 C-7.65 28 -9.3 28 -11 28 C-11.33 30.31 -11.66 32.62 -12 35 C-11.34 35 -10.68 35 -10 35 C-9.67 35.99 -9.34 36.98 -9 38 C-6.99983534 39.20882096 -6.99983534 39.20882096 -5 40 C-5 40.66 -5 41.32 -5 42 C-1.37 42.33 2.26 42.66 6 43 C6 43.33 6 43.66 6 44 C0.95510345 44.35892545 -2.85234141 44.58426255 -7.4375 42.25 C-12.72259907 37.60942521 -12.72259907 37.60942521 -13.43359375 33.484375 C-13.44301959 26.88628351 -12.49874133 22.56374769 -9 17 C-7.97784031 15.31330307 -6.95706914 13.62576411 -5.9375 11.9375 C-5.42832031 11.10347656 -4.91914063 10.26945312 -4.39453125 9.41015625 C-2.62769658 6.35655124 -1.28430486 3.28211243 0 0 Z " fill="#F3060A" transform="translate(23,9)"/>
<path d="M0 0 C1.67542976 0.28604898 3.34385343 0.61781233 5 1 C5.66 3.97 6.32 6.94 7 10 C8.60226955 10.22245393 10.20696767 10.42746669 11.8125 10.625 C12.70582031 10.74101563 13.59914063 10.85703125 14.51953125 10.9765625 C17.25690391 11.23500743 17.25690391 11.23500743 20 9 C23.6875 9.375 23.6875 9.375 27 10 C27 10.99 27 11.98 27 13 C27.33 12.67 27.66 12.34 28 12 C29.66617115 11.95936168 31.33388095 11.957279 33 12 C32.67 12.99 32.34 13.98 32 15 C29.36 15 26.72 15 24 15 C23.67 20.94 23.34 26.88 23 33 C22.34 33 21.68 33 21 33 C21 28.05 21 23.1 21 18 C16.05 17.01 11.1 16.02 6 15 C6 14.34 6 13.68 6 13 C3.525 12.01 3.525 12.01 1 11 C1 10.01 1 9.02 1 8 C0.34 8 -0.32 8 -1 8 C-1.04241723 5.66705225 -1.04092937 3.33297433 -1 1 C-0.67 0.67 -0.34 0.34 0 0 Z " fill="#F80304" transform="translate(12,36)"/>
<path d="M0 0 C0.66 0 1.32 0 2 0 C2 0.99 2 1.98 2 3 C2.66 3 3.32 3 4 3 C4 3.99 4 4.98 4 6 C4.66 6.33 5.32 6.66 6 7 C0.42531458 10.61601216 -4.60567654 10.30720059 -11 10 C-10.98839844 11.21558594 -10.97679687 12.43117188 -10.96484375 13.68359375 C-10.95546722 15.26822764 -10.94636687 16.85286318 -10.9375 18.4375 C-10.92912109 19.23994141 -10.92074219 20.04238281 -10.91210938 20.86914062 C-10.9034857 22.91295221 -10.9477185 24.95683902 -11 27 C-11.33 27.33 -11.66 27.66 -12 28 C-13.65 28 -15.3 28 -17 28 C-17 22.39 -17 16.78 -17 11 C-16.34 11 -15.68 11 -15 11 C-15 15.95 -15 20.9 -15 26 C-14.34 26 -13.68 26 -13 26 C-13.01160156 24.95199219 -13.02320313 23.90398437 -13.03515625 22.82421875 C-13.04453655 21.44531428 -13.0536365 20.06640789 -13.0625 18.6875 C-13.07087891 17.99720703 -13.07925781 17.30691406 -13.08789062 16.59570312 C-13.10307906 13.4516975 -13.00193327 11.00579981 -12 8 C-9.36 8 -6.72 8 -4 8 C-4 7.34 -4 6.68 -4 6 C-6.31 6.33 -8.62 6.66 -11 7 C-10.67 5.35 -10.34 3.7 -10 2 C-8.72125 2.04125 -7.4425 2.0825 -6.125 2.125 C-3.98128508 2.24212873 -3.98128508 2.24212873 -2 2 C-1.34 1.34 -0.68 0.68 0 0 Z " fill="#E4151D" transform="translate(48,43)"/>
<path d="M0 0 C0.66 0 1.32 0 2 0 C7.70612245 18.5877551 7.70612245 18.5877551 4 26 C3.84995027 27.3734635 3.75161994 28.7528526 3.68359375 30.1328125 C3.64169922 30.93847656 3.59980469 31.74414062 3.55664062 32.57421875 C3.49766602 33.83685547 3.49766602 33.83685547 3.4375 35.125 C3.39431641 35.97449219 3.35113281 36.82398438 3.30664062 37.69921875 C3.20045764 39.79928223 3.09971503 41.89961948 3 44 C2.67 44 2.34 44 2 44 C1.97104024 40.87501937 1.95321517 37.7500731 1.9375 34.625 C1.92912109 33.73554687 1.92074219 32.84609375 1.91210938 31.9296875 C1.90888672 31.07890625 1.90566406 30.228125 1.90234375 29.3515625 C1.89710693 28.56604004 1.89187012 27.78051758 1.88647461 26.97119141 C2 25 2 25 3 23 C3.46588282 17.11834264 3.46588282 17.11834264 1 12 C0.01 12.495 0.01 12.495 -1 13 C-1.33 13.99 -1.66 14.98 -2 16 C-2.66 16 -3.32 16 -4 16 C-4 17.98 -4 19.96 -4 22 C-4.33 22 -4.66 22 -5 22 C-5.29105568 16.40445447 -4.37632274 12.22999426 -2.5 7.0625 C-2.26152344 6.37865234 -2.02304687 5.69480469 -1.77734375 4.99023438 C-1.19454118 3.32341903 -0.59862949 1.66119684 0 0 Z " fill="#DD1A1E" transform="translate(35,1)"/>
<path d="M0 0 C2.66604097 2.66604097 3.00267372 4.03315407 3.3125 7.875 C3.18294742 11.51610933 2.35812382 14.60469046 1 18 C-1.35086573 15.86284934 -2.6612688 13.8687097 -4 11 C-4.33 10.67 -4.66 10.34 -5 10 C-5.04063832 8.33382885 -5.042721 6.66611905 -5 5 C-4.34 5 -3.68 5 -3 5 C-2.87625 4.360625 -2.7525 3.72125 -2.625 3.0625 C-2.41875 2.381875 -2.2125 1.70125 -2 1 C-1.34 0.67 -0.68 0.34 0 0 Z " fill="#FA0201" transform="translate(36,12)"/>
<path d="M0 0 C3.3667134 5.0500701 5.03578548 11.02187 6 17 C5.071875 16.4740625 5.071875 16.4740625 4.125 15.9375 C3.42375 15.628125 2.7225 15.31875 2 15 C1.01 15.495 1.01 15.495 0 16 C-0.66 15.67 -1.32 15.34 -2 15 C-3.2625955 9.73918543 -2.82333814 6.06482815 -1 1 C-0.67 0.67 -0.34 0.34 0 0 Z " fill="#E21317" transform="translate(48,8)"/>
<path d="M0 0 C1 2 1 2 0.75 4 C0 6 0 6 -3 8 C-5.38776412 12.37756756 -5.59578472 17.1175049 -6 22 C-5.34 22 -4.68 22 -4 22 C-3.67 22.99 -3.34 23.98 -3 25 C-0.99983534 26.20882096 -0.99983534 26.20882096 1 27 C1 27.66 1 28.32 1 29 C4.63 29.33 8.26 29.66 12 30 C12 30.33 12 30.66 12 31 C6.95510345 31.35892545 3.14765859 31.58426255 -1.4375 29.25 C-6.72259907 24.60942521 -6.72259907 24.60942521 -7.43359375 20.484375 C-7.44556418 12.10507506 -5.37190313 6.44628376 0 0 Z " fill="#CE171B" transform="translate(17,22)"/>
<path d="M0 0 C0.66 0.33 1.32 0.66 2 1 C2.59355614 3.64860427 2.74209269 6.29197322 3 9 C2.01 9.495 2.01 9.495 1 10 C0.27840576 11.64363134 -0.39351421 13.31050386 -1 15 C-1.66 15 -2.32 15 -3 15 C-3 14.01 -3 13.02 -3 12 C-3.66 12 -4.32 12 -5 12 C-4.34 8.37 -3.68 4.74 -3 1 C-2.01 0.67 -1.02 0.34 0 0 Z " fill="#F90203" transform="translate(55,34)"/>
<path d="M0 0 C0.66 0 1.32 0 2 0 C2 4.95 2 9.9 2 15 C2.66 15 3.32 15 4 15 C4 10.05 4 5.1 4 0 C4.33 0 4.66 0 5 0 C5 5.61 5 11.22 5 17 C3.35 17 1.7 17 0 17 C0 11.39 0 5.78 0 0 Z " fill="#D61922" transform="translate(31,54)"/>
<path d="M0 0 C2.85212766 2.85212766 2.73901015 5.01990482 3 9 C2.52944399 11.45259494 1.82239721 13.62956099 1 16 C0.17361624 13.10765685 0 11.11257569 0 8 C-0.268125 8.639375 -0.53625 9.27875 -0.8125 9.9375 C-2 12 -2 12 -5 13 C-3.58192622 8.52761347 -1.88695626 4.28853694 0 0 Z " fill="#D52125" transform="translate(23,9)"/>
<path d="M0 0 C1 2 1 2 0.75 4 C0 6 0 6 -3 8 C-4.00168531 9.94832935 -4.00168531 9.94832935 -4.6875 12.125 C-4.93886719 12.84945312 -5.19023437 13.57390625 -5.44921875 14.3203125 C-5.63097656 14.87460937 -5.81273437 15.42890625 -6 16 C-6.81998065 13.64518377 -7.13384316 12.39841683 -6.328125 10 C-5.97234375 9.34 -5.6165625 8.68 -5.25 8 C-4.87875 7.3090625 -4.5075 6.618125 -4.125 5.90625 C-2.88877891 3.81154205 -1.55774771 1.86929725 0 0 Z " fill="#D81B22" transform="translate(17,22)"/>
<path d="M0 0 C0.33 0 0.66 0 1 0 C1.76681614 9.57668161 1.76681614 9.57668161 -0.11328125 13.06640625 C-1.5 14.6875 -1.5 14.6875 -4 17 C-4.33 16.34 -4.66 15.68 -5 15 C-3.52830189 11.26415094 -3.52830189 11.26415094 -1 10 C-0.53248212 7.64400765 -0.53248212 7.64400765 -0.375 4.9375 C-0.26285156 3.55884766 -0.26285156 3.55884766 -0.1484375 2.15234375 C-0.09945312 1.44207031 -0.05046875 0.73179688 0 0 Z " fill="#DE1525" transform="translate(59,32)"/>
<path d="M0 0 C1.98 0.99 3.96 1.98 6 3 C6 4.65 6 6.3 6 8 C4.68 7.34 3.36 6.68 2 6 C2 5.34 2 4.68 2 4 C1.34 4 0.68 4 0 4 C0 2.68 0 1.36 0 0 Z " fill="#FB0202" transform="translate(49,22)"/>
<path d="M0 0 C0.99 0.495 0.99 0.495 2 1 C2 1.66 2 2.32 2 3 C2.66 3 3.32 3 4 3 C5.2380014 6.57644848 4.74926071 9.33694766 4 13 C3.67 13 3.34 13 3 13 C2.49487756 11.39743892 1.99608373 9.79288208 1.5 8.1875 C1.2215625 7.29417969 0.943125 6.40085937 0.65625 5.48046875 C0 3 0 3 0 0 Z " fill="#DA131D" transform="translate(47,23)"/>
<path d="M0 0 C0.33 0 0.66 0 1 0 C1.99 3.3 2.98 6.6 4 10 C3.01 10 2.02 10 1 10 C-0.85064319 6.87703962 -1.29356154 4.62059232 -1 1 C-0.67 0.67 -0.34 0.34 0 0 Z " fill="#E31420" transform="translate(18,36)"/>
<path d="M0 0 C0.66 0 1.32 0 2 0 C2 1.65 2 3.3 2 5 C1.34 5 0.68 5 0 5 C-0.12375 5.969375 -0.2475 6.93875 -0.375 7.9375 C-0.58125 8.948125 -0.7875 9.95875 -1 11 C-1.99 11.495 -1.99 11.495 -3 12 C-2.01 8.04 -1.02 4.08 0 0 Z " fill="#C12734" transform="translate(35,1)"/>
<path d="M0 0 C0.66 0 1.32 0 2 0 C3.45606519 4.52092968 2.27032841 7.51648796 1 12 C0.67 12 0.34 12 0 12 C-0.76173392 7.6835078 -1.16063604 4.25566547 0 0 Z " fill="#E30F1A" transform="translate(46,11)"/>
</svg>
